<?xml version="1.0" encoding="UTF-8"?>
<svg width="100mm" height="100mm" version="1.1" viewBox="0 0 100 100" xml:space="preserve" xmlns="http://www.w3.org/2000/svg"><defs><filter id="filter2330" x="0" y="0" width="1.0496" height="1.0428" color-interpolation-filters="sRGB"><feFlood flood-color="rgb(0,0,0)" flood-opacity=".098039" result="flood"/><feComposite in="flood" in2="SourceGraphic" operator="in" result="composite1"/><feGaussianBlur in="composite1" result="blur"/><feOffset dx="2.2" dy="2.2" result="offset"/><feComposite in="SourceGraphic" in2="offset" result="composite2"/></filter></defs><g transform="translate(0,-197)" fill="#ff6e40"><ellipse cx="50" cy="247" rx="50" ry="50" fill="#ff6e40"/></g><path d="m66.417 69.921h-25.692v-32.699h25.692m0-4.6713h-25.692a4.6713 4.6713 0 0 0-4.6713 4.6713v32.699a4.6713 4.6713 0 0 0 4.6713 4.6713h25.692a4.6713 4.6713 0 0 0 4.6713-4.6713v-32.699a4.6713 4.6713 0 0 0-4.6713-4.6713m-7.007-9.3426h-28.028a4.6713 4.6713 0 0 0-4.6713 4.6713v32.699h4.6713v-32.699h28.028z" fill="#fafafa" filter="url(#filter2330)" stroke-width="2.3356"/></svg>
